STARTFONT 2.3
FONT -FontForge-Tangerine-Book-R-Normal--10-100-72-72-P-37-ISO10646-1
SIZE 10 72 72  2
FONTBOUNDINGBOX 16 11 -3 -3
COMMENT "Generated by fontforge, http://fontforge.sourceforge.net"
COMMENT "Copyright (c) 2010 by Toshi Omagari. All rights reserved."
STARTPROPERTIES 40
FOUNDRY "FontForge"
FAMILY_NAME "Tangerine"
WEIGHT_NAME "Book"
SLANT "R"
SETWIDTH_NAME "Normal"
ADD_STYLE_NAME ""
PIXEL_SIZE 10
POINT_SIZE 100
RESOLUTION_X 72
RESOLUTION_Y 72
SPACING "P"
AVERAGE_WIDTH 37
CHARSET_REGISTRY "ISO10646"
CHARSET_ENCODING "1"
FONTNAME_REGISTRY ""
CHARSET_COLLECTIONS "ISO10646-1"
BITS_PER_PIXEL 2
FONT_NAME "Tangerine-Regular"
FACE_NAME "Tangerine Regular"
COPYRIGHT "Copyright (c) 2010 by Toshi Omagari. All rights reserved."
FONT_VERSION "1.3"
FONT_ASCENT 8
FONT_DESCENT 2
UNDERLINE_POSITION -1
UNDERLINE_THICKNESS 1
X_HEIGHT 2
CAP_HEIGHT 5
RAW_ASCENT 750
RAW_DESCENT 250
NORM_SPACE 2
RELATIVE_WEIGHT 40
RELATIVE_SETWIDTH 50
SUPERSCRIPT_X 0
SUPERSCRIPT_Y 4
SUPERSCRIPT_SIZE 6
SUBSCRIPT_X 0
SUBSCRIPT_Y 1
SUBSCRIPT_SIZE 6
AVG_LOWERCASE_WIDTH 24
AVG_UPPERCASE_WIDTH 71
ENDPROPERTIES
CHARS 233
STARTCHAR space
ENCODING 32
SWIDTH 150 0
DWIDTH 2 0
BBX 1 1 0 0
BITMAP
00
ENDCHAR
STARTCHAR exclam
ENCODING 33
SWIDTH 189 0
DWIDTH 2 0
BBX 3 6 0 0
BITMAP
04
04
10
10
00
40
ENDCHAR
STARTCHAR quotedbl
ENCODING 34
SWIDTH 214 0
DWIDTH 2 0
BBX 2 1 1 3
BITMAP
50
ENDCHAR
STARTCHAR numbersign
ENCODING 35
SWIDTH 289 0
DWIDTH 3 0
BBX 3 3 0 0
BITMAP
14
3C
A0
ENDCHAR
STARTCHAR dollar
ENCODING 36
SWIDTH 269 0
DWIDTH 3 0
BBX 3 3 0 0
BITMAP
14
20
50
ENDCHAR
STARTCHAR percent
ENCODING 37
SWIDTH 388 0
DWIDTH 4 0
BBX 4 4 0 0
BITMAP
01
14
55
15
ENDCHAR
STARTCHAR ampersand
ENCODING 38
SWIDTH 507 0
DWIDTH 5 0
BBX 5 5 0 0
BITMAP
1800
1000
1140
4800
5540
ENDCHAR
STARTCHAR quotesingle
ENCODING 39
SWIDTH 120 0
DWIDTH 1 0
BBX 1 1 1 3
BITMAP
40
ENDCHAR
STARTCHAR parenleft
ENCODING 40
SWIDTH 250 0
DWIDTH 3 0
BBX 2 7 1 -1
BITMAP
10
40
40
40
40
40
40
ENDCHAR
STARTCHAR parenright
ENCODING 41
SWIDTH 276 0
DWIDTH 3 0
BBX 3 7 0 -1
BITMAP
04
04
04
04
10
10
40
ENDCHAR
STARTCHAR asterisk
ENCODING 42
SWIDTH 188 0
DWIDTH 2 0
BBX 1 1 1 3
BITMAP
40
ENDCHAR
STARTCHAR plus
ENCODING 43
SWIDTH 301 0
DWIDTH 3 0
BBX 3 3 0 0
BITMAP
10
78
10
ENDCHAR
STARTCHAR comma
ENCODING 44
SWIDTH 112 0
DWIDTH 1 0
BBX 1 1 0 0
BITMAP
40
ENDCHAR
STARTCHAR hyphen
ENCODING 45
SWIDTH 245 0
DWIDTH 2 0
BBX 2 1 0 1
BITMAP
70
ENDCHAR
STARTCHAR period
ENCODING 46
SWIDTH 112 0
DWIDTH 1 0
BBX 1 1 0 0
BITMAP
40
ENDCHAR
STARTCHAR slash
ENCODING 47
SWIDTH 210 0
DWIDTH 2 0
BBX 4 6 0 0
BITMAP
01
04
00
10
00
40
ENDCHAR
STARTCHAR zero
ENCODING 48
SWIDTH 349 0
DWIDTH 3 0
BBX 4 3 0 0
BITMAP
05
41
54
ENDCHAR
STARTCHAR one
ENCODING 49
SWIDTH 189 0
DWIDTH 2 0
BBX 2 4 0 0
BITMAP
60
20
10
40
ENDCHAR
STARTCHAR two
ENCODING 50
SWIDTH 277 0
DWIDTH 3 0
BBX 3 3 0 0
BITMAP
14
04
50
ENDCHAR
STARTCHAR three
ENCODING 51
SWIDTH 253 0
DWIDTH 3 0
BBX 4 5 -1 -2
BITMAP
05
05
00
08
74
ENDCHAR
STARTCHAR four
ENCODING 52
SWIDTH 363 0
DWIDTH 4 0
BBX 4 5 0 0
BITMAP
01
05
14
6D
04
ENDCHAR
STARTCHAR five
ENCODING 53
SWIDTH 250 0
DWIDTH 3 0
BBX 4 5 -1 -2
BITMAP
05
18
08
04
74
ENDCHAR
STARTCHAR six
ENCODING 54
SWIDTH 296 0
DWIDTH 3 0
BBX 4 5 0 0
BITMAP
0B
24
10
44
54
ENDCHAR
STARTCHAR seven
ENCODING 55
SWIDTH 326 0
DWIDTH 3 0
BBX 4 5 0 -2
BITMAP
3D
00
00
00
40
ENDCHAR
STARTCHAR eight
ENCODING 56
SWIDTH 305 0
DWIDTH 3 0
BBX 4 5 0 0
BITMAP
05
11
18
44
54
ENDCHAR
STARTCHAR nine
ENCODING 57
SWIDTH 304 0
DWIDTH 3 0
BBX 4 6 -1 -2
BITMAP
04
05
12
1E
05
74
ENDCHAR
STARTCHAR colon
ENCODING 58
SWIDTH 156 0
DWIDTH 2 0
BBX 2 3 0 0
BITMAP
10
00
40
ENDCHAR
STARTCHAR semicolon
ENCODING 59
SWIDTH 156 0
DWIDTH 2 0
BBX 2 3 0 0
BITMAP
10
00
40
ENDCHAR
STARTCHAR less
ENCODING 60
SWIDTH 301 0
DWIDTH 3 0
BBX 1 2 1 0
BITMAP
40
40
ENDCHAR
STARTCHAR equal
ENCODING 61
SWIDTH 301 0
DWIDTH 3 0
BBX 3 1 0 0
BITMAP
B8
ENDCHAR
STARTCHAR greater
ENCODING 62
SWIDTH 301 0
DWIDTH 3 0
BBX 2 2 1 1
BITMAP
80
10
ENDCHAR
STARTCHAR question
ENCODING 63
SWIDTH 285 0
DWIDTH 3 0
BBX 4 5 0 0
BITMAP
06
01
10
00
40
ENDCHAR
STARTCHAR at
ENCODING 64
SWIDTH 492 0
DWIDTH 5 0
BBX 5 5 0 -1
BITMAP
1E00
2540
5540
5B00
1500
ENDCHAR
STARTCHAR A
ENCODING 65
SWIDTH 996 0
DWIDTH 10 0
BBX 10 6 0 0
BITMAP
000550
000010
002040
001F80
001040
550090
ENDCHAR
STARTCHAR B
ENCODING 66
SWIDTH 638 0
DWIDTH 6 0
BBX 7 5 0 0
BITMAP
0104
0160
0010
4014
1510
ENDCHAR
STARTCHAR C
ENCODING 67
SWIDTH 557 0
DWIDTH 6 0
BBX 6 6 0 0
BITMAP
0150
1000
1000
5000
1000
1540
ENDCHAR
STARTCHAR D
ENCODING 68
SWIDTH 799 0
DWIDTH 8 0
BBX 8 6 0 0
BITMAP
0550
0044
0041
0001
0101
5554
ENDCHAR
STARTCHAR E
ENCODING 69
SWIDTH 494 0
DWIDTH 5 0
BBX 6 6 0 0
BITMAP
0050
0400
1A00
2000
4000
1040
ENDCHAR
STARTCHAR F
ENCODING 70
SWIDTH 626 0
DWIDTH 6 0
BBX 8 7 0 0
BITMAP
000A
0054
0010
0250
01B8
0010
5400
ENDCHAR
STARTCHAR G
ENCODING 71
SWIDTH 571 0
DWIDTH 6 0
BBX 8 8 -1 -2
BITMAP
002E
0091
0100
0200
0104
0010
4010
1440
ENDCHAR
STARTCHAR H
ENCODING 72
SWIDTH 865 0
DWIDTH 9 0
BBX 11 7 0 0
BITMAP
000004
001000
005040
1BD500
209B00
410100
650200
ENDCHAR
STARTCHAR I
ENCODING 73
SWIDTH 554 0
DWIDTH 6 0
BBX 7 6 0 0
BITMAP
0004
0010
0010
0010
4180
3E00
ENDCHAR
STARTCHAR J
ENCODING 74
SWIDTH 634 0
DWIDTH 6 0
BBX 8 8 0 -2
BITMAP
0001
0004
0004
0004
0010
4050
8180
7900
ENDCHAR
STARTCHAR K
ENCODING 75
SWIDTH 936 0
DWIDTH 9 0
BBX 10 6 0 0
BITMAP
015450
001000
001400
001400
404400
540140
ENDCHAR
STARTCHAR L
ENCODING 76
SWIDTH 657 0
DWIDTH 7 0
BBX 8 6 0 0
BITMAP
002C
0091
0140
1200
BD00
52E0
ENDCHAR
STARTCHAR M
ENCODING 77
SWIDTH 1219 0
DWIDTH 12 0
BBX 13 6 0 0
BITMAP
00154040
00004100
00004100
00010400
40010400
25410500
ENDCHAR
STARTCHAR N
ENCODING 78
SWIDTH 990 0
DWIDTH 10 0
BBX 13 6 0 0
BITMAP
01540140
00040400
00000000
00004000
40004000
25001000
ENDCHAR
STARTCHAR O
ENCODING 79
SWIDTH 606 0
DWIDTH 6 0
BBX 7 6 0 0
BITMAP
06E0
1414
1004
5004
2050
1F40
ENDCHAR
STARTCHAR P
ENCODING 80
SWIDTH 783 0
DWIDTH 8 0
BBX 9 6 0 0
BITMAP
001000
001040
001040
001500
404000
540000
ENDCHAR
STARTCHAR Q
ENCODING 81
SWIDTH 563 0
DWIDTH 6 0
BBX 7 8 1 -2
BITMAP
0140
0040
4040
4040
5000
1400
6900
06F4
ENDCHAR
STARTCHAR R
ENCODING 82
SWIDTH 854 0
DWIDTH 9 0
BBX 8 6 0 0
BITMAP
0011
0011
0015
0050
4044
5405
ENDCHAR
STARTCHAR S
ENCODING 83
SWIDTH 480 0
DWIDTH 5 0
BBX 5 5 0 0
BITMAP
0500
0200
0040
4040
5400
ENDCHAR
STARTCHAR T
ENCODING 84
SWIDTH 577 0
DWIDTH 6 0
BBX 8 6 0 0
BITMAP
02F9
0400
0000
0010
0040
5400
ENDCHAR
STARTCHAR U
ENCODING 85
SWIDTH 752 0
DWIDTH 8 0
BBX 6 6 2 0
BITMAP
5410
0010
0090
4180
8540
B480
ENDCHAR
STARTCHAR V
ENCODING 86
SWIDTH 661 0
DWIDTH 7 0
BBX 6 6 2 0
BITMAP
5090
0010
0400
0440
0600
1500
ENDCHAR
STARTCHAR W
ENCODING 87
SWIDTH 822 0
DWIDTH 8 0
BBX 9 6 1 0
BITMAP
540140
040040
044000
044000
044000
044000
ENDCHAR
STARTCHAR X
ENCODING 88
SWIDTH 813 0
DWIDTH 8 0
BBX 9 6 0 0
BITMAP
014140
014000
004000
001000
002400
541E00
ENDCHAR
STARTCHAR Y
ENCODING 89
SWIDTH 662 0
DWIDTH 7 0
BBX 9 7 0 -1
BITMAP
014040
004100
010500
411800
41D000
804000
3E0000
ENDCHAR
STARTCHAR Z
ENCODING 90
SWIDTH 625 0
DWIDTH 6 0
BBX 7 7 0 0
BITMAP
0014
02D0
0100
0000
0000
0010
7F80
ENDCHAR
STARTCHAR bracketleft
ENCODING 91
SWIDTH 318 0
DWIDTH 3 0
BBX 2 7 1 -1
BITMAP
10
10
10
40
40
40
40
ENDCHAR
STARTCHAR backslash
ENCODING 92
SWIDTH 212 0
DWIDTH 2 0
BBX 2 6 0 0
BITMAP
40
40
40
10
10
10
ENDCHAR
STARTCHAR bracketright
ENCODING 93
SWIDTH 339 0
DWIDTH 3 0
BBX 3 7 1 -1
BITMAP
04
14
10
10
10
10
40
ENDCHAR
STARTCHAR asciicircum
ENCODING 94
SWIDTH 272 0
DWIDTH 3 0
BBX 2 2 1 2
BITMAP
40
10
ENDCHAR
STARTCHAR underscore
ENCODING 95
SWIDTH 356 0
DWIDTH 4 0
BBX 3 1 0 -1
BITMAP
A4
ENDCHAR
STARTCHAR grave
ENCODING 96
SWIDTH 155 0
DWIDTH 2 0
BBX 1 1 0 3
BITMAP
40
ENDCHAR
STARTCHAR a
ENCODING 97
SWIDTH 294 0
DWIDTH 3 0
BBX 3 3 0 0
BITMAP
28
40
44
ENDCHAR
STARTCHAR b
ENCODING 98
SWIDTH 247 0
DWIDTH 2 0
BBX 5 8 0 0
BITMAP
0040
0000
0000
0000
1000
6400
4400
4000
ENDCHAR
STARTCHAR c
ENCODING 99
SWIDTH 203 0
DWIDTH 2 0
BBX 2 3 0 0
BITMAP
20
40
50
ENDCHAR
STARTCHAR d
ENCODING 100
SWIDTH 285 0
DWIDTH 3 0
BBX 6 8 0 0
BITMAP
0010
0040
0100
0100
0400
2400
4400
5400
ENDCHAR
STARTCHAR e
ENCODING 101
SWIDTH 206 0
DWIDTH 2 0
BBX 2 3 0 0
BITMAP
20
40
50
ENDCHAR
STARTCHAR f
ENCODING 102
SWIDTH 156 0
DWIDTH 2 0
BBX 8 10 -3 -2
BITMAP
0005
0010
0010
0040
0040
02D0
0100
0100
0000
4000
ENDCHAR
STARTCHAR g
ENCODING 103
SWIDTH 210 0
DWIDTH 2 0
BBX 3 5 -1 -2
BITMAP
08
14
24
44
B4
ENDCHAR
STARTCHAR h
ENCODING 104
SWIDTH 292 0
DWIDTH 3 0
BBX 6 8 0 0
BITMAP
0050
0000
0000
0000
0000
1800
5400
4400
ENDCHAR
STARTCHAR i
ENCODING 105
SWIDTH 149 0
DWIDTH 1 0
BBX 2 3 0 0
BITMAP
10
40
40
ENDCHAR
STARTCHAR j
ENCODING 106
SWIDTH 136 0
DWIDTH 1 0
BBX 4 4 -3 -2
BITMAP
01
00
00
40
ENDCHAR
STARTCHAR k
ENCODING 107
SWIDTH 259 0
DWIDTH 3 0
BBX 6 8 0 0
BITMAP
0050
0000
0000
0000
0000
2400
4000
5000
ENDCHAR
STARTCHAR l
ENCODING 108
SWIDTH 134 0
DWIDTH 1 0
BBX 5 8 0 0
BITMAP
0140
0400
0400
1000
1000
5000
4000
4000
ENDCHAR
STARTCHAR m
ENCODING 109
SWIDTH 413 0
DWIDTH 4 0
BBX 4 3 0 0
BITMAP
6A
55
51
ENDCHAR
STARTCHAR n
ENCODING 110
SWIDTH 291 0
DWIDTH 3 0
BBX 3 3 0 0
BITMAP
68
54
44
ENDCHAR
STARTCHAR o
ENCODING 111
SWIDTH 225 0
DWIDTH 2 0
BBX 2 3 0 0
BITMAP
30
50
40
ENDCHAR
STARTCHAR p
ENCODING 112
SWIDTH 261 0
DWIDTH 3 0
BBX 4 5 -1 -2
BITMAP
01
05
28
10
40
ENDCHAR
STARTCHAR q
ENCODING 113
SWIDTH 269 0
DWIDTH 3 0
BBX 3 5 0 -2
BITMAP
24
40
50
10
10
ENDCHAR
STARTCHAR r
ENCODING 114
SWIDTH 195 0
DWIDTH 2 0
BBX 3 3 0 0
BITMAP
64
50
40
ENDCHAR
STARTCHAR s
ENCODING 115
SWIDTH 188 0
DWIDTH 2 0
BBX 2 3 0 0
BITMAP
50
10
50
ENDCHAR
STARTCHAR t
ENCODING 116
SWIDTH 171 0
DWIDTH 2 0
BBX 2 4 0 0
BITMAP
10
70
40
40
ENDCHAR
STARTCHAR u
ENCODING 117
SWIDTH 299 0
DWIDTH 3 0
BBX 3 3 0 0
BITMAP
44
54
94
ENDCHAR
STARTCHAR v
ENCODING 118
SWIDTH 271 0
DWIDTH 3 0
BBX 3 3 0 0
BITMAP
54
54
50
ENDCHAR
STARTCHAR w
ENCODING 119
SWIDTH 369 0
DWIDTH 4 0
BBX 4 3 0 0
BITMAP
55
61
58
ENDCHAR
STARTCHAR x
ENCODING 120
SWIDTH 263 0
DWIDTH 3 0
BBX 3 3 0 0
BITMAP
28
20
50
ENDCHAR
STARTCHAR y
ENCODING 121
SWIDTH 280 0
DWIDTH 3 0
BBX 5 5 -2 -2
BITMAP
0440
0540
0900
0000
5000
ENDCHAR
STARTCHAR z
ENCODING 122
SWIDTH 238 0
DWIDTH 2 0
BBX 2 3 0 0
BITMAP
10
00
50
ENDCHAR
STARTCHAR braceleft
ENCODING 123
SWIDTH 291 0
DWIDTH 3 0
BBX 2 7 1 -1
BITMAP
10
10
10
40
40
40
40
ENDCHAR
STARTCHAR bar
ENCODING 124
SWIDTH 162 0
DWIDTH 2 0
BBX 1 8 0 -2
BITMAP
40
40
40
40
40
40
40
40
ENDCHAR
STARTCHAR braceright
ENCODING 125
SWIDTH 285 0
DWIDTH 3 0
BBX 2 7 1 -1
BITMAP
10
10
10
10
40
40
40
ENDCHAR
STARTCHAR asciitilde
ENCODING 126
SWIDTH 383 0
DWIDTH 4 0
BBX 2 2 1 1
BITMAP
D0
70
ENDCHAR
STARTCHAR space.dup1
ENCODING 160
SWIDTH 150 0
DWIDTH 2 0
BBX 1 1 0 0
BITMAP
00
ENDCHAR
STARTCHAR exclamdown
ENCODING 161
SWIDTH 189 0
DWIDTH 2 0
BBX 3 6 -1 -3
BITMAP
04
00
00
10
10
40
ENDCHAR
STARTCHAR cent
ENCODING 162
SWIDTH 194 0
DWIDTH 2 0
BBX 2 3 0 0
BITMAP
20
90
90
ENDCHAR
STARTCHAR sterling
ENCODING 163
SWIDTH 344 0
DWIDTH 3 0
BBX 3 3 0 0
BITMAP
04
10
54
ENDCHAR
STARTCHAR currency
ENCODING 164
SWIDTH 344 0
DWIDTH 3 0
BBX 3 3 0 0
BITMAP
28
44
64
ENDCHAR
STARTCHAR yen
ENCODING 165
SWIDTH 309 0
DWIDTH 3 0
BBX 2 3 0 0
BITMAP
10
50
B0
ENDCHAR
STARTCHAR brokenbar
ENCODING 166
SWIDTH 162 0
DWIDTH 2 0
BBX 1 8 0 -2
BITMAP
40
40
40
00
00
40
40
40
ENDCHAR
STARTCHAR section
ENCODING 167
SWIDTH 395 0
DWIDTH 4 0
BBX 6 8 -1 -3
BITMAP
0150
0500
0500
0500
0200
0200
4100
1400
ENDCHAR
STARTCHAR dieresis
ENCODING 168
SWIDTH 174 0
DWIDTH 2 0
BBX 2 1 0 3
BITMAP
50
ENDCHAR
STARTCHAR copyright
ENCODING 169
SWIDTH 331 0
DWIDTH 3 0
BBX 2 2 1 2
BITMAP
40
50
ENDCHAR
STARTCHAR ordfeminine
ENCODING 170
SWIDTH 226 0
DWIDTH 2 0
BBX 1 1 1 2
BITMAP
40
ENDCHAR
STARTCHAR guillemotleft
ENCODING 171
SWIDTH 289 0
DWIDTH 3 0
BBX 3 3 0 0
BITMAP
14
60
64
ENDCHAR
STARTCHAR logicalnot
ENCODING 172
SWIDTH 265 0
DWIDTH 3 0
BBX 3 2 0 1
BITMAP
B4
10
ENDCHAR
STARTCHAR registered
ENCODING 174
SWIDTH 331 0
DWIDTH 3 0
BBX 3 3 0 1
BITMAP
18
54
14
ENDCHAR
STARTCHAR degree
ENCODING 176
SWIDTH 104 0
DWIDTH 1 0
BBX 1 2 1 2
BITMAP
40
80
ENDCHAR
STARTCHAR plusminus
ENCODING 177
SWIDTH 301 0
DWIDTH 3 0
BBX 3 3 0 0
BITMAP
10
78
50
ENDCHAR
STARTCHAR twosuperior
ENCODING 178
SWIDTH 215 0
DWIDTH 2 0
BBX 1 2 1 1
BITMAP
40
40
ENDCHAR
STARTCHAR threesuperior
ENCODING 179
SWIDTH 190 0
DWIDTH 2 0
BBX 1 2 1 1
BITMAP
40
40
ENDCHAR
STARTCHAR acute
ENCODING 180
SWIDTH 157 0
DWIDTH 2 0
BBX 1 1 0 3
BITMAP
40
ENDCHAR
STARTCHAR mu
ENCODING 181
SWIDTH 324 0
DWIDTH 3 0
BBX 3 4 0 -1
BITMAP
14
58
A4
40
ENDCHAR
STARTCHAR paragraph
ENCODING 182
SWIDTH 392 0
DWIDTH 4 0
BBX 5 5 -1 -2
BITMAP
0640
0E40
0900
0500
5400
ENDCHAR
STARTCHAR periodcentered
ENCODING 183
SWIDTH 112 0
DWIDTH 1 0
BBX 1 1 0 1
BITMAP
40
ENDCHAR
STARTCHAR cedilla
ENCODING 184
SWIDTH 115 0
DWIDTH 1 0
BBX 1 1 0 -1
BITMAP
00
ENDCHAR
STARTCHAR onesuperior
ENCODING 185
SWIDTH 174 0
DWIDTH 2 0
BBX 2 3 0 1
BITMAP
40
10
40
ENDCHAR
STARTCHAR ordmasculine
ENCODING 186
SWIDTH 178 0
DWIDTH 2 0
BBX 1 1 1 1
BITMAP
00
ENDCHAR
STARTCHAR guillemotright
ENCODING 187
SWIDTH 276 0
DWIDTH 3 0
BBX 3 3 0 0
BITMAP
50
14
50
ENDCHAR
STARTCHAR onequarter
ENCODING 188
SWIDTH 435 0
DWIDTH 4 0
BBX 3 3 1 0
BITMAP
40
40
58
ENDCHAR
STARTCHAR onehalf
ENCODING 189
SWIDTH 434 0
DWIDTH 4 0
BBX 3 3 1 0
BITMAP
40
54
54
ENDCHAR
STARTCHAR threequarters
ENCODING 190
SWIDTH 476 0
DWIDTH 5 0
BBX 4 3 1 0
BITMAP
44
55
44
ENDCHAR
STARTCHAR questiondown
ENCODING 191
SWIDTH 285 0
DWIDTH 3 0
BBX 4 6 -1 -3
BITMAP
01
00
04
10
40
54
ENDCHAR
STARTCHAR Agrave
ENCODING 192
SWIDTH 996 0
DWIDTH 10 0
BBX 10 8 0 0
BITMAP
000010
000000
000550
000010
002040
001F80
001040
550090
ENDCHAR
STARTCHAR Aacute
ENCODING 193
SWIDTH 996 0
DWIDTH 10 0
BBX 10 8 0 0
BITMAP
000010
000000
000550
000010
002040
001F80
001040
550090
ENDCHAR
STARTCHAR Acircumflex
ENCODING 194
SWIDTH 996 0
DWIDTH 10 0
BBX 10 6 0 0
BITMAP
000550
000010
002040
001F80
001040
550090
ENDCHAR
STARTCHAR Atilde
ENCODING 195
SWIDTH 996 0
DWIDTH 10 0
BBX 11 8 0 0
BITMAP
000020
000004
000550
000010
002040
001F80
001040
550090
ENDCHAR
STARTCHAR Adieresis
ENCODING 196
SWIDTH 996 0
DWIDTH 10 0
BBX 10 6 0 0
BITMAP
000550
000010
002040
001F80
001040
550090
ENDCHAR
STARTCHAR Aring
ENCODING 197
SWIDTH 996 0
DWIDTH 10 0
BBX 10 6 0 0
BITMAP
000550
000010
002040
001F80
001040
550090
ENDCHAR
STARTCHAR AE
ENCODING 198
SWIDTH 1271 0
DWIDTH 13 0
BBX 13 6 0 0
BITMAP
00055440
00002800
00204000
001FC000
00104000
55405500
ENDCHAR
STARTCHAR Ccedilla
ENCODING 199
SWIDTH 557 0
DWIDTH 6 0
BBX 6 6 0 0
BITMAP
0050
0000
1000
5000
2440
1900
ENDCHAR
STARTCHAR Egrave
ENCODING 200
SWIDTH 463 0
DWIDTH 5 0
BBX 5 8 0 0
BITMAP
0100
0000
0440
0800
1D00
5000
4000
5100
ENDCHAR
STARTCHAR Eacute
ENCODING 201
SWIDTH 463 0
DWIDTH 5 0
BBX 5 8 0 0
BITMAP
0040
0000
0440
0800
1D00
5000
4000
5100
ENDCHAR
STARTCHAR Ecircumflex
ENCODING 202
SWIDTH 463 0
DWIDTH 5 0
BBX 5 6 0 0
BITMAP
0440
0800
1D00
5000
4000
5100
ENDCHAR
STARTCHAR Edieresis
ENCODING 203
SWIDTH 463 0
DWIDTH 5 0
BBX 5 6 0 0
BITMAP
0440
0800
1D00
5000
4000
5100
ENDCHAR
STARTCHAR Igrave
ENCODING 204
SWIDTH 514 0
DWIDTH 5 0
BBX 7 8 0 0
BITMAP
0010
0000
0004
0010
0010
0040
8140
7900
ENDCHAR
STARTCHAR Iacute
ENCODING 205
SWIDTH 514 0
DWIDTH 5 0
BBX 7 8 0 0
BITMAP
0010
0000
0004
0010
0010
0040
8140
7900
ENDCHAR
STARTCHAR Icircumflex
ENCODING 206
SWIDTH 514 0
DWIDTH 5 0
BBX 7 6 0 0
BITMAP
0004
0010
0010
0040
8140
7900
ENDCHAR
STARTCHAR Idieresis
ENCODING 207
SWIDTH 514 0
DWIDTH 5 0
BBX 7 6 0 0
BITMAP
0004
0010
0010
0040
8140
7900
ENDCHAR
STARTCHAR Eth
ENCODING 208
SWIDTH 800 0
DWIDTH 8 0
BBX 8 7 0 -1
BITMAP
0550
0044
0041
07E1
0101
4105
01A4
ENDCHAR
STARTCHAR Ntilde
ENCODING 209
SWIDTH 796 0
DWIDTH 8 0
BBX 13 8 -2 0
BITMAP
00009000
0000A000
01540140
00040400
00000000
00004000
40004000
25001000
ENDCHAR
STARTCHAR Ograve
ENCODING 210
SWIDTH 608 0
DWIDTH 6 0
BBX 7 8 0 0
BITMAP
0040
0000
06E0
1414
1004
5004
2060
1F40
ENDCHAR
STARTCHAR Oacute
ENCODING 211
SWIDTH 608 0
DWIDTH 6 0
BBX 7 8 0 0
BITMAP
0040
0000
06E0
1414
1004
5004
2060
1F40
ENDCHAR
STARTCHAR Ocircumflex
ENCODING 212
SWIDTH 608 0
DWIDTH 6 0
BBX 7 8 0 0
BITMAP
0040
0000
06E0
1414
1004
5004
2060
1F40
ENDCHAR
STARTCHAR Otilde
ENCODING 213
SWIDTH 608 0
DWIDTH 6 0
BBX 7 8 0 0
BITMAP
0180
0040
06E0
1414
1004
5004
2060
1F40
ENDCHAR
STARTCHAR Odieresis
ENCODING 214
SWIDTH 608 0
DWIDTH 6 0
BBX 7 8 0 0
BITMAP
0040
0000
06E0
1414
1004
5004
2060
1F40
ENDCHAR
STARTCHAR multiply
ENCODING 215
SWIDTH 301 0
DWIDTH 3 0
BBX 2 3 1 0
BITMAP
50
80
40
ENDCHAR
STARTCHAR Oslash
ENCODING 216
SWIDTH 605 0
DWIDTH 6 0
BBX 7 6 0 0
BITMAP
0680
1884
2244
5A14
0860
0B40
ENDCHAR
STARTCHAR Ugrave
ENCODING 217
SWIDTH 717 0
DWIDTH 7 0
BBX 7 6 1 0
BITMAP
5404
0014
0020
1050
1250
3950
ENDCHAR
STARTCHAR Uacute
ENCODING 218
SWIDTH 717 0
DWIDTH 7 0
BBX 7 8 1 0
BITMAP
0010
0000
5404
0014
0020
1050
1250
3950
ENDCHAR
STARTCHAR Ucircumflex
ENCODING 219
SWIDTH 718 0
DWIDTH 7 0
BBX 7 8 1 0
BITMAP
0050
0000
5404
0014
0020
1050
1250
3950
ENDCHAR
STARTCHAR Udieresis
ENCODING 220
SWIDTH 718 0
DWIDTH 7 0
BBX 7 6 1 0
BITMAP
5404
0014
0020
1050
1250
3950
ENDCHAR
STARTCHAR Yacute
ENCODING 221
SWIDTH 662 0
DWIDTH 7 0
BBX 9 9 0 -1
BITMAP
000400
000400
014040
004100
010500
411800
41D000
804000
3E0000
ENDCHAR
STARTCHAR Thorn
ENCODING 222
SWIDTH 745 0
DWIDTH 7 0
BBX 8 6 0 0
BITMAP
0004
002D
0022
0020
4058
5500
ENDCHAR
STARTCHAR germandbls
ENCODING 223
SWIDTH 304 0
DWIDTH 3 0
BBX 9 10 -3 -2
BITMAP
000500
001540
000200
001D00
006000
000000
000000
00A000
000000
400000
ENDCHAR
STARTCHAR agrave
ENCODING 224
SWIDTH 294 0
DWIDTH 3 0
BBX 3 4 0 0
BITMAP
04
28
40
44
ENDCHAR
STARTCHAR aacute
ENCODING 225
SWIDTH 294 0
DWIDTH 3 0
BBX 3 4 0 0
BITMAP
04
28
40
44
ENDCHAR
STARTCHAR acircumflex
ENCODING 226
SWIDTH 294 0
DWIDTH 3 0
BBX 3 3 0 0
BITMAP
28
40
44
ENDCHAR
STARTCHAR atilde
ENCODING 227
SWIDTH 294 0
DWIDTH 3 0
BBX 3 5 0 0
BITMAP
10
14
3C
40
44
ENDCHAR
STARTCHAR adieresis
ENCODING 228
SWIDTH 284 0
DWIDTH 3 0
BBX 3 4 0 0
BITMAP
14
28
40
44
ENDCHAR
STARTCHAR aring
ENCODING 229
SWIDTH 294 0
DWIDTH 3 0
BBX 3 4 0 0
BITMAP
04
28
40
44
ENDCHAR
STARTCHAR ae
ENCODING 230
SWIDTH 363 0
DWIDTH 4 0
BBX 4 3 0 0
BITMAP
29
44
54
ENDCHAR
STARTCHAR ccedilla
ENCODING 231
SWIDTH 203 0
DWIDTH 2 0
BBX 2 4 0 -1
BITMAP
20
40
50
40
ENDCHAR
STARTCHAR egrave
ENCODING 232
SWIDTH 206 0
DWIDTH 2 0
BBX 2 4 0 0
BITMAP
10
20
40
50
ENDCHAR
STARTCHAR eacute
ENCODING 233
SWIDTH 206 0
DWIDTH 2 0
BBX 3 4 0 0
BITMAP
14
20
40
50
ENDCHAR
STARTCHAR ecircumflex
ENCODING 234
SWIDTH 206 0
DWIDTH 2 0
BBX 2 3 0 0
BITMAP
20
40
50
ENDCHAR
STARTCHAR edieresis
ENCODING 235
SWIDTH 206 0
DWIDTH 2 0
BBX 3 4 0 0
BITMAP
14
20
40
50
ENDCHAR
STARTCHAR igrave
ENCODING 236
SWIDTH 149 0
DWIDTH 1 0
BBX 2 4 0 0
BITMAP
10
10
40
40
ENDCHAR
STARTCHAR iacute
ENCODING 237
SWIDTH 149 0
DWIDTH 1 0
BBX 2 4 0 0
BITMAP
10
10
40
40
ENDCHAR
STARTCHAR icircumflex
ENCODING 238
SWIDTH 149 0
DWIDTH 1 0
BBX 2 3 0 0
BITMAP
10
40
40
ENDCHAR
STARTCHAR idieresis
ENCODING 239
SWIDTH 149 0
DWIDTH 1 0
BBX 2 4 0 0
BITMAP
10
10
40
40
ENDCHAR
STARTCHAR eth
ENCODING 240
SWIDTH 234 0
DWIDTH 2 0
BBX 3 7 0 0
BITMAP
40
50
10
10
24
40
50
ENDCHAR
STARTCHAR ntilde
ENCODING 241
SWIDTH 291 0
DWIDTH 3 0
BBX 3 5 0 0
BITMAP
10
14
6C
54
44
ENDCHAR
STARTCHAR ograve
ENCODING 242
SWIDTH 225 0
DWIDTH 2 0
BBX 2 4 0 0
BITMAP
10
30
50
40
ENDCHAR
STARTCHAR oacute
ENCODING 243
SWIDTH 225 0
DWIDTH 2 0
BBX 3 4 0 0
BITMAP
04
30
50
40
ENDCHAR
STARTCHAR ocircumflex
ENCODING 244
SWIDTH 225 0
DWIDTH 2 0
BBX 2 3 0 0
BITMAP
30
50
40
ENDCHAR
STARTCHAR otilde
ENCODING 245
SWIDTH 225 0
DWIDTH 2 0
BBX 3 5 0 0
BITMAP
10
24
34
50
40
ENDCHAR
STARTCHAR odieresis
ENCODING 246
SWIDTH 225 0
DWIDTH 2 0
BBX 3 4 0 0
BITMAP
14
30
50
40
ENDCHAR
STARTCHAR divide
ENCODING 247
SWIDTH 301 0
DWIDTH 3 0
BBX 1 1 1 1
BITMAP
40
ENDCHAR
STARTCHAR oslash
ENCODING 248
SWIDTH 225 0
DWIDTH 2 0
BBX 2 3 0 0
BITMAP
20
50
40
ENDCHAR
STARTCHAR ugrave
ENCODING 249
SWIDTH 299 0
DWIDTH 3 0
BBX 3 4 0 0
BITMAP
04
44
54
94
ENDCHAR
STARTCHAR uacute
ENCODING 250
SWIDTH 299 0
DWIDTH 3 0
BBX 3 4 0 0
BITMAP
04
44
54
94
ENDCHAR
STARTCHAR ucircumflex
ENCODING 251
SWIDTH 299 0
DWIDTH 3 0
BBX 3 3 0 0
BITMAP
44
54
94
ENDCHAR
STARTCHAR udieresis
ENCODING 252
SWIDTH 299 0
DWIDTH 3 0
BBX 3 4 0 0
BITMAP
14
44
54
94
ENDCHAR
STARTCHAR yacute
ENCODING 253
SWIDTH 280 0
DWIDTH 3 0
BBX 5 6 -2 -2
BITMAP
0040
0440
0540
0900
0000
5000
ENDCHAR
STARTCHAR thorn
ENCODING 254
SWIDTH 261 0
DWIDTH 3 0
BBX 4 7 -1 -2
BITMAP
04
04
01
15
28
10
40
ENDCHAR
STARTCHAR ydieresis
ENCODING 255
SWIDTH 280 0
DWIDTH 3 0
BBX 5 6 -2 -2
BITMAP
0140
0440
0540
0900
0000
5000
ENDCHAR
STARTCHAR dotlessi
ENCODING 305
SWIDTH 149 0
DWIDTH 1 0
BBX 2 3 0 0
BITMAP
10
40
40
ENDCHAR
STARTCHAR Lslash
ENCODING 321
SWIDTH 657 0
DWIDTH 7 0
BBX 8 6 0 0
BITMAP
002C
0051
0180
1200
5900
B6E0
ENDCHAR
STARTCHAR lslash
ENCODING 322
SWIDTH 134 0
DWIDTH 1 0
BBX 5 8 0 0
BITMAP
0140
0400
0400
1000
1000
5000
4000
4000
ENDCHAR
STARTCHAR OE
ENCODING 338
SWIDTH 827 0
DWIDTH 8 0
BBX 9 6 0 0
BITMAP
07E140
142400
101C00
509000
604000
2F5100
ENDCHAR
STARTCHAR oe
ENCODING 339
SWIDTH 345 0
DWIDTH 3 0
BBX 4 3 0 0
BITMAP
29
50
54
ENDCHAR
STARTCHAR Scaron
ENCODING 352
SWIDTH 480 0
DWIDTH 5 0
BBX 5 8 0 0
BITMAP
0040
0000
0000
0500
0200
0040
4040
5400
ENDCHAR
STARTCHAR scaron
ENCODING 353
SWIDTH 188 0
DWIDTH 2 0
BBX 2 3 0 0
BITMAP
50
10
50
ENDCHAR
STARTCHAR Ydieresis
ENCODING 376
SWIDTH 662 0
DWIDTH 7 0
BBX 9 9 0 -1
BITMAP
000400
000000
014040
004100
010500
411800
41D000
804000
3E0000
ENDCHAR
STARTCHAR Zcaron
ENCODING 381
SWIDTH 625 0
DWIDTH 6 0
BBX 7 8 0 0
BITMAP
0010
0014
02D0
0100
0000
0000
0010
7F80
ENDCHAR
STARTCHAR zcaron
ENCODING 382
SWIDTH 248 0
DWIDTH 2 0
BBX 2 3 0 0
BITMAP
10
00
50
ENDCHAR
STARTCHAR florin
ENCODING 402
SWIDTH 214 0
DWIDTH 2 0
BBX 3 3 0 0
BITMAP
24
B0
40
ENDCHAR
STARTCHAR circumflex
ENCODING 710
SWIDTH 196 0
DWIDTH 2 0
BBX 1 1 1 3
BITMAP
00
ENDCHAR
STARTCHAR caron
ENCODING 711
SWIDTH 196 0
DWIDTH 2 0
BBX 1 1 1 3
BITMAP
00
ENDCHAR
STARTCHAR breve
ENCODING 728
SWIDTH 198 0
DWIDTH 2 0
BBX 1 1 1 3
BITMAP
00
ENDCHAR
STARTCHAR dotaccent
ENCODING 729
SWIDTH 89 0
DWIDTH 1 0
BBX 1 1 0 3
BITMAP
40
ENDCHAR
STARTCHAR ring
ENCODING 730
SWIDTH 117 0
DWIDTH 1 0
BBX 1 1 0 3
BITMAP
40
ENDCHAR
STARTCHAR ogonek
ENCODING 731
SWIDTH 124 0
DWIDTH 1 0
BBX 1 1 0 -1
BITMAP
40
ENDCHAR
STARTCHAR tilde
ENCODING 732
SWIDTH 222 0
DWIDTH 2 0
BBX 2 3 0 2
BITMAP
40
50
20
ENDCHAR
STARTCHAR hungarumlaut
ENCODING 733
SWIDTH 253 0
DWIDTH 3 0
BBX 2 1 0 3
BITMAP
50
ENDCHAR
STARTCHAR mu.dup2
ENCODING 956
SWIDTH 324 0
DWIDTH 3 0
BBX 3 4 0 -1
BITMAP
14
58
A4
40
ENDCHAR
STARTCHAR endash
ENCODING 8211
SWIDTH 500 0
DWIDTH 5 0
BBX 5 1 0 1
BITMAP
BF80
ENDCHAR
STARTCHAR emdash
ENCODING 8212
SWIDTH 1000 0
DWIDTH 10 0
BBX 10 1 0 1
BITMAP
BFFFE0
ENDCHAR
STARTCHAR quoteleft
ENCODING 8216
SWIDTH 87 0
DWIDTH 1 0
BBX 1 1 0 3
BITMAP
40
ENDCHAR
STARTCHAR quoteright
ENCODING 8217
SWIDTH 87 0
DWIDTH 1 0
BBX 1 1 1 3
BITMAP
40
ENDCHAR
STARTCHAR quotesinglbase
ENCODING 8218
SWIDTH 112 0
DWIDTH 1 0
BBX 1 1 0 0
BITMAP
00
ENDCHAR
STARTCHAR quotedblleft
ENCODING 8220
SWIDTH 167 0
DWIDTH 2 0
BBX 2 1 0 3
BITMAP
50
ENDCHAR
STARTCHAR quotedblright
ENCODING 8221
SWIDTH 167 0
DWIDTH 2 0
BBX 1 1 1 3
BITMAP
40
ENDCHAR
STARTCHAR quotedblbase
ENCODING 8222
SWIDTH 192 0
DWIDTH 2 0
BBX 2 1 0 0
BITMAP
50
ENDCHAR
STARTCHAR dagger
ENCODING 8224
SWIDTH 185 0
DWIDTH 2 0
BBX 3 6 0 0
BITMAP
10
10
B4
10
40
40
ENDCHAR
STARTCHAR daggerdbl
ENCODING 8225
SWIDTH 185 0
DWIDTH 2 0
BBX 4 5 -1 1
BITMAP
04
04
1D
00
78
ENDCHAR
STARTCHAR bullet
ENCODING 8226
SWIDTH 207 0
DWIDTH 2 0
BBX 2 1 0 1
BITMAP
60
ENDCHAR
STARTCHAR ellipsis
ENCODING 8230
SWIDTH 376 0
DWIDTH 4 0
BBX 1 1 3 0
BITMAP
00
ENDCHAR
STARTCHAR perthousand
ENCODING 8240
SWIDTH 571 0
DWIDTH 6 0
BBX 6 4 0 0
BITMAP
0100
1400
5550
1540
ENDCHAR
STARTCHAR guilsinglleft
ENCODING 8249
SWIDTH 189 0
DWIDTH 2 0
BBX 2 3 0 0
BITMAP
10
40
50
ENDCHAR
STARTCHAR guilsinglright
ENCODING 8250
SWIDTH 176 0
DWIDTH 2 0
BBX 2 3 0 0
BITMAP
40
10
40
ENDCHAR
STARTCHAR fraction
ENCODING 8260
SWIDTH 220 0
DWIDTH 2 0
BBX 3 3 0 0
BITMAP
04
10
40
ENDCHAR
STARTCHAR Euro
ENCODING 8364
SWIDTH 360 0
DWIDTH 4 0
BBX 3 4 0 0
BITMAP
28
B4
40
40
ENDCHAR
STARTCHAR trademark
ENCODING 8482
SWIDTH 389 0
DWIDTH 4 0
BBX 3 1 1 2
BITMAP
54
ENDCHAR
STARTCHAR minus
ENCODING 8722
SWIDTH 301 0
DWIDTH 3 0
BBX 3 1 0 1
BITMAP
78
ENDCHAR
STARTCHAR fi
ENCODING 64257
SWIDTH 297 0
DWIDTH 3 0
BBX 8 10 -3 -2
BITMAP
0005
0010
0010
0050
0040
02E0
0140
0110
0000
4000
ENDCHAR
STARTCHAR fl
ENCODING 64258
SWIDTH 290 0
DWIDTH 3 0
BBX 10 10 -3 -2
BITMAP
000550
001100
001400
004400
005000
01E000
011000
011000
000000
400000
ENDCHAR
STARTCHAR .notdef
ENCODING -1
SWIDTH 150 0
DWIDTH 2 0
BBX 1 1 0 0
BITMAP
00
ENDCHAR
STARTCHAR .null
ENCODING -1
SWIDTH 0 0
DWIDTH 0 0
BBX 1 1 0 0
BITMAP
00
ENDCHAR
STARTCHAR nonmarkingreturn
ENCODING -1
SWIDTH 150 0
DWIDTH 2 0
BBX 1 1 0 0
BITMAP
00
ENDCHAR
ENDFONT
